# AST/ASF file generated using VICON BodyLanguage
# -----------------------------------------------
:version 1.10
:name VICON
:units
  mass 1.0
  length 0.45
  angle deg
:documentation
   .ast/.asf automatically generated from VICON data using
   VICON BodyBuilder and BodyLanguage model FoxedUp or BRILLIANT.MOD
:root
   order TX TY TZ RX RY RZ
   axis XYZ
   position 0 0 0  
   orientation 0 0 0 
:bonedata
  begin
     id 1 
     name lhipjoint
     direction 0.682418 -0.694059 0.22932 
     length 2.25561 
     axis 0 0 0  XYZ
  end
  begin
     id 2 
     name lfemur
     direction 0.34202 -0.939693 0  
     length 6.96448  
     axis 0 0 20  XYZ
    dof rx ry rz
    limits (-160.0 20.0)
           (-70.0 70.0)
           (-60.0 70.0)
  end
  begin
     id 3 
     name ltibia
     direction 0.34202 -0.939693 0   
     length 6.88553   
     axis 0 0 20   XYZ
    dof rx
    limits (-10.0 170.0)
  end
  begin
     id 4 
     name lfoot
     direction 0.0723587 -0.198804 0.977364   
     length 1.88518   
     axis -90 7.62852e-016 20   XYZ
    dof rx rz
    limits (-45.0 90.0)
           (-70.0 20.0)
  end
  begin
     id 5 
     name ltoes
     direction 1.53558e-011 -4.21962e-011 1   
     length 0.952124   
     axis -90 7.62852e-016 20   XYZ
    dof rx
    limits (-90.0 20.0)
  end
  begin
     id 6 
     name rhipjoint
     direction -0.657603 -0.71533 0.236348   
     length 2.18854  
     axis 0 0 0  XYZ 
  end
  begin
     id 7 
     name rfemur
     direction -0.34202 -0.939693 0   
     length 6.86686   
     axis 0 0 -20   XYZ
    dof rx ry rz
    limits (-160.0 20.0)
           (-70.0 70.0)
           (-70.0 60.0)
  end
  begin
     id 8 
     name rtibia
     direction -0.34202 -0.939693 0   
     length 6.59503   
     axis 0 0 -20   XYZ
    dof rx
    limits (-10.0 170.0)
 end
 begin
     id 9 
     name rfoot
     direction -0.101977 -0.280179 0.954516   
     length 1.93723  
     axis -90 -7.62852e-016 -20   XYZ
    dof rx rz
    limits (-45.0 90.0)
           (-20.0 70.0)
  end
  begin
     id 10 
     name rtoes
     direction -1.53564e-011 -4.21897e-011 1   
     length 0.970315   
     axis -90 -7.62852e-016 -20   XYZ
    dof rx
    limits (-90.0 20.0)
  end
  begin
     id 11 
     name lowerback
     direction -0.0339559 0.999421 -0.00235966   
     length 1.88543   
     axis 0 0 0   XYZ
    dof rx ry rz
    limits (-20.0 45.0)
           (-30.0 30.0)
           (-30.0 30.0)
  end
  begin
     id 12 
     name upperback
     direction 0.00401003 0.999739 0.0224689   
     length 1.8856   
     axis 0 0 0   XYZ
    dof rx ry rz
    limits (-20.0 45.0)
           (-30.0 30.0)
           (-30.0 30.0)
  end
  begin
     id 13 
     name thorax
     direction 0.0198619 0.999546 0.0226536   
     length 1.88352   
     axis 0 0 0   XYZ
    dof rx ry rz
    limits (-20.0 45.0)
           (-30.0 30.0)
           (-30.0 30.0)
  end
  begin
     id 14 
     name lowerneck
     direction -0.0461848 0.998632 0.0245198   
     length 1.34895   
     axis 0 0 0   XYZ
    dof rx ry rz
    limits (-20.0 45.0)
           (-30.0 30.0)
           (-30.0 30.0)
  end
  begin
     id 15 
     name upperneck
     direction -0.0180627 0.994724 -0.100984   
     length 1.35214   
     axis 0 0 0   XYZ
    dof rx ry rz
    limits (-20.0 45.0)
           (-30.0 30.0)
           (-30.0 30.0)
  end
  begin
     id 16
     name head
     direction -0.00374772 0.999293 -0.037403  
     length 1.3568  
     axis 0 0 0   XYZ
    dof rx ry rz
    limits (-20.0 45.0)
           (-30.0 30.0)
           (-30.0 30.0)
  end
  begin
     id 17 
     name lclavicle
     direction 0.971773 0.191119 0.138311  
     length 2.84954  
     axis 0 0 0   XYZ
    dof ry rz
    limits (-20.0 10.0)
           (0.0 20.0)
  end
  begin
     id 18 
     name lhumerus
     direction 1 -4.4897e-011 -2.43761e-027   
     length 4.40919   
     axis 180 -30 -90   XYZ
    dof rx ry rz
    limits (-60.0 90.0)
           (-90.0 90.0)
           (-90.0 90.0)
  end
  begin
     id 19
     name lradius
     direction 1 -4.4896e-011 -9.1621e-027   
     length 3.03857   
     axis 180 -30 -90   XYZ
    dof rx
    limits (-10.0 170.0)
  end
  begin
     id 20
     name lwrist
     direction 1 -4.4896e-011 -1.41363e-026   
     length 1.51928   
     axis 1.07133e-014 90 90   XYZ
    dof ry
    limits (-180.0 0.0)
 end
  begin
     id 21 
     name lhand
     direction 1 -4.48978e-011 -2.82725e-026   
     length 0.523208   
     axis 1.80403e-014 90 90   XYZ
    dof rx rz
    limits (-90.0 90.0)
           (-45.0 45.0)
  end
  begin
     id 22 
     name lfingers
     direction 1 -4.48977e-011 -5.6545e-026   
     length 0.421824   
     axis 3.60806e-014 90 90   XYZ
    dof rx
    limits (0.0 90.0)
  end
  begin
     id 23
     name lthumb
     direction 0.707107 -6.34962e-011 0.707107   
     length 0.605657   
     axis -90 45 2.85299e-015   XYZ
    dof rx rz
    limits (-45.0 45.0)
           (-45.0 45.0)
  end
  begin
     id 24 
     name rclavicle
     direction -0.957247 0.24311 0.156766   
     length 3.12406  
     axis 0 0 0   XYZ 
    dof ry rz
    limits (-10.0 20.0)
           (-20.0 0.0)
  end
  begin
     id 25 
     name rhumerus
     direction -1 -4.48964e-011 -1.70632e-027  
     length 4.61969   
     axis 180 30 90   XYZ
    dof rx ry rz
    limits (-90.0 60.0)
           (-90.0 90.0)
           (-90.0 90.0)
  end
  begin
     id 26 
     name rradius
     direction -1 -4.48966e-011 -6.60395e-027   
     length 3.09382   
     axis 180 30 90   XYZ
    dof rx
    limits (-10.0 170.0)
  end
  begin
     id 27 
     name rwrist
     direction -1 -4.48963e-011 -1.41363e-026   
     length 1.54691   
     axis 1.07133e-014 -90 -90   XYZ
    dof ry
    limits (-180.0 0.0)
  end
  begin
     id 28
     name rhand
     direction -1 -4.49013e-011 -2.82725e-026   
     length 0.500896   
     axis 1.80403e-014 -90 -90   XYZ
    dof rx rz
    limits (-90.0 90.0)
           (-45.0 45.0)
  end
  begin
     id 29
     name rfingers
     direction -1 -4.48902e-011 -5.6545e-026   
     length 0.403835   
     axis 3.60806e-014 -90 -90   XYZ
    dof rx
    limits (0.0 90.0)
  end
  begin
     id 30
     name rthumb
     direction -0.707107 -6.34953e-011 0.707107   
     length 0.579829   
     axis -90 -45 -2.85299e-015   XYZ
    dof rx rz
    limits (-45.0 45.0)
           (-45.0 45.0)
  end
:hierarchy
  begin
    root lhipjoint rhipjoint lowerback
    lhipjoint lfemur
    lfemur ltibia
    ltibia lfoot
    lfoot ltoes
    rhipjoint rfemur
    rfemur rtibia
    rtibia rfoot
    rfoot rtoes
    lowerback upperback
    upperback thorax
    thorax lowerneck lclavicle rclavicle
    lowerneck upperneck
    upperneck head
    lclavicle lhumerus
    lhumerus lradius
    lradius lwrist
    lwrist lhand lthumb
    lhand lfingers
    rclavicle rhumerus
    rhumerus rradius
    rradius rwrist
    rwrist rhand rthumb
    rhand rfingers
  end

#!OML:ASF E:\madness\Project 1\Capture day 1\Session 1\Female1.ASF
:FULLY-SPECIFIED
:DEGREES
893
root 2.98823 16.2332 1.02275 -173.385 -44.9687 179.016
lowerback -4.40259 -4.36138 -3.41005
upperback -3.09224 -5.79728 0.852765
thorax -0.303203 -2.89402 2.52166
lowerneck 0.379876 10.6478 7.14582
upperneck 19.6894 14.5595 -7.92729
head 7.07428 6.56698 -2.79169
rclavicle -5.54966e-014 -2.65874e-015
rhumerus -61.3865 -9.932 -69.526
rradius 57.0568
rwrist 0.0492655
rhand -12.1587 -43.1391
rfingers 7.12502
rthumb 13.904 -72.6542
lclavicle -5.54966e-014 -2.65874e-015
lhumerus -54.223 14.5996 69.6393
lradius 50.5592
lwrist -9.88589
lhand -31.6887 -14.7819
lfingers 7.12502
lthumb -4.94816 15.1403
rfemur -26.2283 29.5071 6.04124
rtibia 21.2147
rfoot -2.53119 7.12744
rtoes 10.6848
lfemur -8.30328 -1.22142 -28.1668
ltibia 20.7435
lfoot -22.5361 36.141
ltoes 42.2453
894
root 2.98758 16.2333 1.02925 -173.428 -45.0527 179.047
lowerback -4.40923 -4.33658 -3.38569
upperback -3.08025 -5.76399 0.854986
thorax -0.291457 -2.87774 2.51121
lowerneck 0.436351 10.6089 7.08855
upperneck 19.5481 14.5046 -7.89205
head 7.00661 6.54886 -2.78111
rclavicle 1.02831e-013 1.11568e-014
rhumerus -61.4978 -10.0908 -69.469
rradius 56.9117
rwrist 0.00272814
rhand -12.0012 -42.7658
rfingers 7.12502
rthumb 14.0559 -72.2705
lclavicle 1.02831e-013 1.11568e-014
lhumerus -54.0559 14.4736 69.8794
lradius 50.594
lwrist -10.1408
lhand -31.9362 -14.839
lfingers 7.12502
lthumb -5.18716 15.0775
rfemur -26.181 29.5486 6.03946
rtibia 21.1907
rfoot -2.59606 6.99462
rtoes 10.6777
lfemur -8.29587 -1.32606 -28.1338
ltibia 20.6837
lfoot -20.8849 36.7094
ltoes 40.2522
895
root 2.97669 16.2329 1.02763 -173.545 -44.9749 179.048
lowerback -4.51267 -4.36308 -3.42406
upperback -3.00925 -5.79056 0.885307
thorax -0.152234 -2.89267 2.54934
lowerneck 0.53859 10.6843 7.00995
upperneck 19.4431 14.6011 -7.82794
head 6.9522 6.6015 -2.74715
rclavicle 2.59895e-014 5.51627e-015
rhumerus -61.4623 -9.90114 -69.6629
rradius 56.7477
rwrist -0.275512
rhand -13.0348 -43.2632
rfingers 7.12502
rthumb 13.0596 -72.8344
lclavicle 2.59895e-014 5.51627e-015
lhumerus -53.9786 14.582 69.9944
lradius 50.6251
lwrist -10.2563
lhand -31.9166 -15.2823
lfingers 7.12502
lthumb -5.16823 14.6347
rfemur -25.932 29.5856 6.1095
rtibia 21.0551
rfoot -2.56701 7.0685
rtoes 11.1791
lfemur -8.21853 -1.31015 -28.1657
ltibia 20.871
lfoot -23.1845 36.0327
ltoes 42.9406
896
root 2.94807 16.2298 1.01587 -173.599 -44.7032 178.889
lowerback -4.8052 -4.34584 -3.55086
upperback -2.91645 -5.74875 0.910777
thorax 0.117389 -2.87549 2.61838
lowerneck 0.747534 10.7512 7.19129
upperneck 19.3942 14.7309 -8.12675
head 6.94791 6.65766 -2.87008
rclavicle 1.21125e-013 1.20265e-014
rhumerus -61.4708 -9.62987 -69.7429
rradius 56.615
rwrist -0.424563
rhand -13.6195 -43.7847
rfingers 7.12502
rthumb 12.4959 -73.3911
lclavicle 1.21125e-013 1.20265e-014
lhumerus -54.0449 14.6788 70.1882
lradius 50.7228
lwrist -10.2436
lhand -31.8721 -15.6287
lfingers 7.12502
lthumb -5.12527 14.2893
rfemur -25.581 29.6081 6.11686
rtibia 20.9976
rfoot -2.54727 7.31033
rtoes 12.4825
lfemur -7.86839 -0.956939 -28.4194
ltibia 20.9021
lfoot -21.464 36.7165
ltoes 39.7158
897
root 2.98176 16.2276 1.04198 -173.759 -45.2995 179.431
lowerback -4.31025 -4.48928 -3.36984
upperback -3.16829 -5.97565 1.14167
thorax -0.394169 -2.98037 2.7964
lowerneck 0.979784 10.7289 7.34081
upperneck 19.2993 14.7291 -8.3553
head 6.90569 6.65788 -2.97951
rclavicle 9.18292e-014 9.64106e-015
rhumerus -61.57 -9.68902 -69.5852
rradius 56.4386
rwrist -0.277217
rhand -13.0292 -43.7206
rfingers 7.12502
rthumb 13.065 -73.2914
lclavicle 9.18292e-014 9.64106e-015
lhumerus -54.1247 14.5625 70.436
lradius 50.9345
lwrist -10.1663
lhand -31.8728 -15.6585
lfingers 7.12502
lthumb -5.1259 14.2595
rfemur -25.9866 29.6835 6.29452
rtibia 20.9672
rfoot -2.48608 6.48963
rtoes 12.7543
lfemur -8.40596 -0.612019 -27.8565
ltibia 20.9063
lfoot -22.0774 35.5833
ltoes 40.969
